<?xml version="1.0" standalone="no"?>
<!DOCTYPE svg PUBLIC "-//W3C//DTD SVG 20010904//EN"
 "http://www.w3.org/TR/2001/REC-SVG-20010904/DTD/svg10.dtd">
<svg version="1.0" xmlns="http://www.w3.org/2000/svg"
 width="600.000000pt" height="600.000000pt" viewBox="0 0 600.000000 600.000000"
 preserveAspectRatio="xMidYMid meet">
<metadata>
Created by potrace 1.11, written by Peter Selinger 2001-2013
</metadata>
<g transform="translate(0.000000,600.000000) scale(0.100000,-0.100000)"
fill="#000000" stroke="none">
<path d="M1693 5248 l-1283 -742 0 -1507 c0 -1193 3 -1509 12 -1516 33 -26
2556 -1477 2573 -1480 12 -2 508 279 1305 740 l1285 742 3 1511 2 1510 -1281
739 c-705 407 -1293 741 -1308 742 -19 2 -383 -204 -1308 -739z m1429 -879
c106 -23 173 -75 217 -169 24 -50 26 -66 26 -180 0 -110 -3 -131 -24 -177 -29
-65 -91 -124 -157 -149 -40 -16 -75 -19 -194 -19 l-145 0 -3 347 -2 347 27 4
c60 9 205 6 255 -4z m-2094 -261 l152 -263 0 263 0 262 45 0 45 0 -2 -347 c-3
-328 -4 -348 -21 -351 -51 -10 -61 3 -213 264 l-149 256 -5 -259 -5 -258 -40
0 -40 0 -3 348 -2 347 43 0 43 0 152 -262z m1087 62 l65 0 0 -35 0 -35 -66 0
-65 0 3 -159 c3 -141 5 -161 23 -181 15 -17 29 -21 65 -18 l45 2 0 -34 0 -35
-72 0 c-57 0 -77 4 -100 21 -43 32 -52 72 -52 246 l-1 157 -40 3 -39 3 82 94
82 93 3 -61 3 -61 64 0z m2590 0 l65 0 0 -35 0 -35 -65 0 -65 0 0 -160 c0
-150 1 -161 21 -181 17 -17 30 -20 64 -17 41 5 43 4 49 -25 4 -20 2 -34 -6
-39 -21 -13 -116 -9 -153 6 -57 24 -65 53 -65 246 l0 170 -40 0 c-22 0 -40 3
-40 6 0 4 37 47 83 97 l82 90 3 -61 3 -62 64 0z m-2985 -16 c63 -37 70 -66 70
-276 0 -131 -3 -189 -12 -194 -6 -4 -66 -9 -132 -11 -135 -5 -170 5 -210 60
-29 40 -29 134 0 174 34 48 107 77 193 78 l76 1 -3 34 c-2 20 -14 46 -27 59
-20 20 -34 25 -82 25 -32 1 -74 -2 -94 -7 -35 -7 -37 -6 -43 24 -3 18 -4 34
-2 37 28 27 217 25 266 -4z m866 7 c72 -33 114 -111 114 -213 l0 -48 -170 0
c-192 0 -187 3 -154 -79 28 -69 131 -100 237 -70 22 6 40 9 42 7 1 -2 6 -17 9
-34 7 -29 4 -33 -25 -43 -18 -6 -71 -11 -118 -11 -149 0 -225 54 -252 179 -20
96 4 206 59 265 60 64 174 85 258 47z m1194 -3 c73 -37 80 -60 80 -281 0 -169
-2 -188 -17 -195 -10 -4 -75 -7 -144 -7 -121 0 -127 1 -161 27 -43 33 -63 84
-55 141 12 88 91 140 216 142 l76 1 -3 34 c-2 21 -13 45 -28 60 -22 23 -32 25
-97 23 -39 -1 -81 -3 -91 -5 -13 -2 -22 6 -28 25 -12 33 -9 37 34 47 71 17
171 11 218 -12z m1341 11 c47 -16 87 -56 99 -98 5 -20 10 -113 10 -207 0 -154
-2 -173 -17 -179 -10 -4 -68 -10 -130 -13 -99 -4 -116 -2 -155 17 -55 26 -78
64 -78 131 0 60 18 97 64 128 40 27 127 44 184 36 l42 -6 0 36 c0 73 -72 108
-178 87 -62 -12 -74 -6 -70 39 2 19 10 26 33 31 51 11 160 10 196 -2z m-1002
-226 c36 -122 68 -224 71 -227 3 -3 37 98 75 224 l70 230 47 0 47 0 -14 -42
c-8 -24 -53 -164 -101 -313 -95 -297 -110 -334 -149 -359 -25 -17 -132 -25
-153 -12 -5 3 -7 19 -4 36 4 29 6 30 53 30 59 0 78 18 102 93 23 73 22 77 -18
77 -34 0 -34 1 -54 68 -11 37 -47 147 -80 245 l-60 178 51 -3 51 -3 66 -222z
m-164 -738 c0 -5 9 -10 20 -10 10 0 24 -10 30 -21 6 -12 16 -29 23 -37 10 -12
10 -17 1 -23 -7 -4 -15 -2 -17 4 -5 17 -25 15 -61 -5 -28 -17 -32 -17 -58 -1
-15 9 -29 22 -32 29 -2 6 0 9 5 6 6 -3 8 16 7 43 -3 48 -3 49 29 52 32 3 52
-12 53 -37z m-93 -32 c-2 -13 -11 -23 -18 -23 -8 0 -14 10 -14 23 0 15 6 23
18 23 14 0 17 -6 14 -23z m117 -229 c14 -13 32 -24 39 -24 20 0 14 -28 -8 -35
-11 -3 -29 -18 -40 -32 -17 -22 -22 -24 -36 -13 -14 12 -14 14 0 22 18 10 22
48 5 48 -6 0 -9 -9 -6 -20 3 -11 1 -18 -4 -14 -5 3 -9 19 -9 35 0 20 -4 28
-11 23 -7 -4 -9 -21 -5 -45 5 -31 3 -39 -9 -39 -8 0 -12 6 -9 14 3 7 -2 16
-10 19 -14 6 -21 -4 -17 -25 0 -5 -9 -8 -21 -8 -19 0 -23 6 -25 34 -2 19 2 47
7 61 9 24 14 27 54 23 28 -2 48 2 57 11 10 12 14 12 17 1 3 -7 17 -24 31 -36z
m-938 -154 c5 0 9 -4 9 -9 0 -10 -79 -51 -98 -51 -17 0 -15 28 2 46 20 20 43
19 26 -1 -15 -18 -7 -30 14 -22 8 3 18 21 22 39 5 21 9 27 12 16 2 -10 8 -18
13 -18z m954 10 c-3 -5 1 -11 7 -13 9 -4 8 -6 -2 -6 -16 -1 -40 17 -40 30 0 4
9 5 20 2 11 -3 18 -9 15 -13z m-130 -42 c4 -18 7 -37 6 -41 -3 -15 42 -2 53
15 8 13 6 21 -7 35 -15 18 -15 19 3 20 17 2 20 -5 20 -37 0 -52 17 -60 47 -22
14 19 29 29 39 25 10 -4 12 -9 4 -18 -6 -7 -8 -20 -4 -28 7 -20 47 -34 52 -19
2 6 10 8 17 5 11 -4 12 -10 5 -23 -6 -10 -10 -28 -10 -39 0 -12 -7 -21 -15
-21 -8 0 -15 4 -15 9 0 12 -57 19 -72 9 -10 -6 -8 -13 8 -26 26 -22 21 -46 -7
-32 -13 8 -25 7 -40 -1 -14 -7 -24 -8 -28 -1 -3 5 -18 9 -33 7 -15 -2 -27 0
-27 3 3 18 -2 32 -17 47 -13 12 -13 19 -4 30 18 22 4 33 -40 30 -22 -1 -40 1
-40 6 0 4 -3 14 -6 23 -4 9 -1 16 6 16 19 0 71 41 65 51 -4 5 3 9 13 9 14 0
22 -10 27 -32z m42 -20 c-3 -8 -6 -5 -6 6 -1 11 2 17 5 13 3 -3 4 -12 1 -19z
m-849 -47 c2 -6 -1 -11 -7 -11 -16 0 -13 -37 3 -43 9 -4 19 5 28 21 16 33 38
39 38 12 0 -11 5 -20 10 -20 6 0 10 -6 10 -14 0 -8 9 -21 20 -29 l20 -14 -20
-18 c-11 -10 -20 -13 -20 -7 0 7 -16 12 -40 12 -22 0 -40 -5 -40 -10 0 -6 -11
-3 -24 7 -18 13 -26 30 -28 58 -2 32 -7 41 -25 43 -14 2 -26 -4 -33 -18 -10
-19 -8 -26 14 -49 27 -28 34 -51 15 -51 -18 0 -54 -34 -54 -50 0 -24 28 -22
57 5 15 14 29 21 32 16 3 -5 -1 -14 -9 -21 -8 -7 -15 -19 -15 -27 0 -11 9 -12
38 -7 20 4 38 10 40 14 1 3 29 -19 62 -50 44 -41 59 -62 54 -74 -4 -11 -12
-15 -23 -10 -9 4 -31 9 -48 12 -28 4 -33 1 -33 -17 0 -21 23 -26 105 -23 25 1
66 -54 57 -77 -6 -14 -7 -14 -10 2 -2 9 -10 17 -18 17 -8 0 -14 5 -14 11 0 5
-4 7 -10 4 -6 -3 -7 1 -4 9 3 9 1 16 -5 16 -6 0 -11 -8 -11 -17 0 -12 -8 -18
-25 -19 -14 -1 -23 1 -21 5 10 16 -10 28 -31 20 -30 -11 -29 -28 3 -63 20 -21
24 -30 14 -36 -8 -5 -21 2 -35 18 l-22 26 -24 -20 c-13 -11 -25 -25 -26 -31
-3 -14 52 -34 71 -27 8 3 17 1 21 -5 3 -6 1 -11 -4 -11 -6 0 -11 -11 -11 -25
0 -30 20 -33 45 -5 10 11 14 20 10 20 -5 0 0 6 11 14 29 22 113 -8 114 -40 0
-18 -27 -38 -32 -23 -2 7 -12 9 -26 5 -27 -9 -19 -26 11 -26 18 0 22 -6 24
-36 2 -30 0 -34 -12 -24 -11 9 -18 9 -30 -3 -30 -30 -7 -61 24 -33 17 16 19
15 19 -9 0 -23 -4 -25 -40 -25 -29 0 -39 4 -35 13 3 7 -1 21 -9 32 -14 18 -14
18 -14 -1 -1 -18 -1 -18 -14 -1 -7 9 -19 17 -25 17 -7 0 -21 10 -30 21 -12 16
-23 20 -39 15 -35 -12 -45 -40 -22 -66 11 -12 17 -27 14 -32 -4 -6 -17 2 -30
17 -19 22 -26 25 -43 16 -11 -6 -24 -18 -29 -27 -5 -9 -15 -12 -26 -8 -10 4
-14 10 -8 13 20 14 29 43 19 66 -10 19 -18 21 -61 19 -65 -3 -63 -3 -48 -12
14 -9 6 -42 -10 -42 -5 0 -6 5 -3 10 6 10 -34 15 -88 12 -27 -2 -27 -2 -11 23
10 16 14 34 10 51 -6 23 -4 26 13 21 14 -3 21 0 21 10 0 8 -4 11 -10 8 -11 -7
-12 1 -4 30 5 20 24 22 129 16 5 -1 4 -6 -3 -13 -7 -7 -12 -29 -12 -50 0 -34
3 -38 25 -38 36 0 51 34 30 66 -9 14 -14 33 -11 41 4 9 -1 21 -11 28 -15 11
-15 15 -4 29 7 9 10 16 6 16 -4 0 0 11 8 24 18 26 13 36 -16 36 -16 0 -17 -3
-7 -15 10 -12 10 -15 -3 -15 -9 0 -19 5 -23 11 -4 8 -9 8 -17 0 -18 -18 -30
-12 -23 12 3 12 -1 35 -8 49 -12 23 -12 27 0 32 8 3 14 2 14 -2 0 -4 4 -13 9
-20 6 -11 16 -8 46 12 21 14 42 26 47 26 14 0 23 -33 10 -38 -15 -5 -16 -48
-2 -57 6 -4 19 3 28 16 17 20 21 21 58 9 21 -7 42 -18 46 -23 10 -16 38 11 38
37 0 17 -2 18 -10 6 -5 -8 -10 -10 -10 -5 0 6 -14 18 -31 27 -16 10 -27 13
-24 8 3 -6 4 -10 1 -10 -2 0 -11 -3 -20 -6 -10 -4 -16 -1 -16 9 0 9 9 19 20
22 20 6 28 25 11 25 -5 0 -12 11 -15 25 -8 33 -43 33 -57 1 -6 -13 -19 -26
-29 -29 -29 -7 -70 4 -70 20 0 10 8 12 34 8 30 -6 34 -4 43 22 9 25 7 33 -15
58 -22 27 -23 30 -8 33 23 5 50 33 54 55 3 17 -6 21 -47 17 -30 -2 -23 24 8
28 12 2 29 15 38 28 9 14 22 23 30 20 8 -3 12 -2 9 3 -3 5 15 7 41 6 26 -2 49
-8 51 -14z m686 -112 c-3 -5 -10 -7 -15 -3 -5 3 -7 10 -3 15 3 5 10 7 15 3 5
-3 7 -10 3 -15z m386 13 c28 -13 22 -33 -7 -26 -37 9 -44 14 -38 25 7 10 23
11 45 1z m-314 -20 c-8 -13 34 -44 53 -39 19 4 45 -18 37 -32 -3 -5 1 -11 9
-15 8 -3 15 -1 15 4 0 5 7 7 16 3 10 -4 26 6 44 26 30 32 50 40 50 19 0 -9 4
-8 10 2 8 12 10 12 10 1 0 -18 39 -51 60 -51 10 0 20 7 24 15 3 8 12 15 21 15
13 0 14 -4 5 -21 -16 -28 -11 -30 43 -20 26 4 49 6 52 3 9 -9 5 -53 -4 -47 -5
3 -12 1 -16 -5 -3 -5 -17 -10 -31 -10 -14 0 -27 -7 -30 -15 -11 -27 -34 -17
-34 15 0 41 -30 56 -62 31 -21 -17 -22 -22 -11 -50 6 -17 7 -33 3 -36 -5 -3
-7 -11 -4 -18 4 -11 -17 -23 -70 -41 -28 -10 0 -39 31 -31 16 4 22 1 21 -7 -2
-7 -16 -15 -33 -18 -37 -6 -43 -31 -16 -69 12 -16 21 -32 21 -35 0 -12 -45
-46 -61 -46 -19 0 -33 -26 -18 -35 5 -4 7 -11 4 -16 -11 -16 -23 -10 -29 16
-5 21 -12 25 -46 25 -45 0 -51 6 -55 63 -3 37 -6 42 -27 41 -37 -2 -42 20 -5
28 18 4 34 2 38 -4 3 -5 9 -9 13 -9 19 3 22 -3 22 -46 1 -35 5 -48 15 -48 11
0 14 14 13 58 -2 52 0 57 17 52 48 -15 83 27 55 66 -8 12 -12 28 -9 35 3 8 0
20 -6 28 -9 11 -7 22 10 50 21 36 21 37 3 51 -28 21 -39 13 -37 -26 2 -29 1
-30 -5 -9 -7 23 -9 23 -15 6 -5 -12 -1 -26 10 -39 10 -11 13 -17 7 -14 -7 4
-15 0 -18 -9 -4 -11 -14 -13 -41 -8 -49 9 -59 -18 -23 -67 6 -10 8 -24 3 -35
-5 -14 -9 -15 -12 -5 -9 24 -42 51 -62 51 -32 0 -33 17 -3 29 36 15 37 38 3
39 -50 2 -61 6 -61 22 0 9 -5 21 -11 27 -8 8 -7 17 4 34 12 16 13 27 6 41 -15
29 0 41 20 17 12 -15 24 -20 35 -16 10 4 15 11 12 16 -3 5 3 11 14 14 20 5 28
27 10 27 -5 0 -10 -5 -10 -11 0 -5 -4 -8 -9 -5 -16 10 0 46 21 46 10 0 17 -4
14 -8z m-137 -57 c12 -89 -10 -123 -63 -97 -50 25 -72 67 -35 67 19 0 49 26
43 37 -3 4 8 8 24 8 18 0 29 -6 31 -15z m221 -236 c-9 -20 -16 -26 -20 -18 -4
6 0 24 9 40 20 35 28 19 11 -22z m-740 -29 c9 12 10 10 8 -10 -3 -26 1 -27 40
-15 16 4 22 2 22 -8 0 -18 -41 -30 -54 -17 -6 6 -18 10 -28 10 -13 0 -18 8
-18 28 0 21 2 24 10 12 9 -13 11 -13 20 0z m-1109 -90 c23 0 29 -5 29 -21 0
-11 5 -17 10 -14 6 4 9 14 8 22 -4 22 18 28 26 8 4 -11 -5 -27 -24 -46 -31
-31 -31 -60 0 -52 10 3 21 -1 25 -8 6 -8 4 -10 -6 -4 -8 4 -3 -3 11 -16 13
-13 33 -22 43 -21 10 2 25 -2 33 -8 11 -10 14 -10 14 1 1 9 4 8 11 -4 7 -13 6
-26 -5 -48 -16 -31 -13 -55 5 -44 5 4 9 0 9 -8 0 -8 -14 -17 -32 -21 -28 -6
-30 -8 -17 -21 10 -10 23 -12 44 -6 24 6 34 4 47 -12 10 -11 15 -24 12 -28 -3
-5 10 -9 28 -9 20 0 51 -11 75 -27 35 -22 40 -29 30 -44 -8 -13 -13 -15 -19
-6 -6 9 -12 6 -20 -8 -7 -11 -13 -24 -13 -30 0 -5 -22 -13 -48 -17 -64 -9 -98
-43 -90 -91 4 -30 2 -35 -32 -52 -33 -18 -36 -23 -30 -51 4 -23 1 -33 -10 -38
-21 -8 -35 -48 -23 -63 7 -9 7 -18 -1 -27 -11 -13 -15 -12 -32 5 -24 24 -30
24 -55 1 -17 -16 -23 -17 -50 -6 -17 7 -37 21 -45 31 -12 16 -12 17 2 6 13
-11 15 -8 11 20 -3 17 -9 35 -14 38 -5 3 0 16 10 30 17 21 17 27 5 57 -11 27
-17 31 -38 26 -19 -5 -26 -2 -31 12 -12 39 -29 70 -51 93 -13 13 -23 30 -23
37 0 8 -5 14 -11 14 -5 0 -7 5 -4 10 4 6 -8 10 -30 10 -22 0 -34 -4 -30 -10 3
-5 2 -10 -3 -10 -21 0 -19 29 4 63 13 20 24 41 24 46 0 6 7 11 15 11 8 0 15
-6 15 -14 0 -7 6 -18 13 -24 15 -13 52 11 42 27 -3 7 3 11 15 11 12 0 18 -5
15 -10 -8 -13 15 -36 35 -34 27 2 60 16 60 25 0 5 -4 9 -10 9 -14 0 -13 27 2
32 6 2 8 10 4 16 -4 7 -16 10 -26 7 -12 -4 -19 1 -23 17 -4 12 -3 25 2 28 8 5
26 50 24 60 -1 3 14 13 33 22 29 15 34 15 34 3 0 -22 66 -20 74 2 9 22 -12 35
-46 29 -28 -6 -46 8 -28 19 8 5 6 15 -4 31 -9 13 -16 30 -16 38 0 8 -6 16 -12
19 -10 3 -10 8 2 21 8 11 16 14 18 7 2 -6 17 -11 33 -11z m1239 -152 c0 -15
-25 -8 -37 11 -10 15 -10 21 0 24 12 5 37 -19 37 -35z m-298 -123 c0 -5 -5
-11 -11 -13 -6 -2 -11 4 -11 13 0 9 5 15 11 13 6 -2 11 -8 11 -13z m26 -98
c15 15 43 14 43 -2 0 -5 -10 -13 -23 -16 -30 -7 -26 -33 10 -64 23 -20 25 -25
13 -39 -8 -9 -17 -13 -20 -9 -22 29 -40 34 -66 17 -33 -21 -57 -6 -34 22 19
23 15 28 -23 34 -21 3 -34 11 -36 23 -2 10 0 16 5 15 12 -3 73 31 73 42 0 5
-5 12 -11 16 -8 4 -7 9 2 15 10 6 20 -3 34 -30 17 -34 22 -37 33 -24z"/>
<path d="M2935 4287 c-3 -7 -4 -129 -3 -272 l3 -260 65 -3 c121 -6 199 30 243
111 19 37 22 57 22 157 0 99 -3 121 -22 156 -30 55 -73 90 -135 109 -64 19
-167 20 -173 2z"/>
<path d="M1575 3912 c-73 -24 -99 -99 -50 -147 21 -21 33 -25 89 -25 96 0 96
0 96 86 0 71 -1 75 -26 84 -28 11 -78 12 -109 2z"/>
<path d="M2429 4095 c-32 -17 -54 -50 -63 -93 l-8 -32 126 0 c121 0 126 1 126
21 0 36 -31 89 -61 104 -35 19 -86 19 -120 0z"/>
<path d="M3650 3913 c-61 -20 -87 -59 -75 -113 10 -47 41 -61 126 -58 l74 3 3
81 3 81 -32 7 c-36 7 -77 7 -99 -1z"/>
<path d="M5003 3909 c-66 -19 -87 -108 -36 -149 22 -17 38 -20 97 -18 l71 3 3
81 3 81 -32 7 c-40 8 -66 7 -106 -5z"/>
<path d="M3900 3195 c-6 -8 -10 -22 -8 -32 3 -15 6 -15 25 6 12 13 20 28 17
33 -8 12 -20 10 -34 -7z"/>
<path d="M3858 2928 c9 -9 15 -9 24 0 9 9 7 12 -12 12 -19 0 -21 -3 -12 -12z"/>
<path d="M3955 2930 c3 -5 11 -10 16 -10 6 0 7 5 4 10 -3 6 -11 10 -16 10 -6
0 -7 -4 -4 -10z"/>
<path d="M3830 2906 c0 -22 3 -27 11 -19 8 8 8 16 0 30 -9 16 -10 14 -11 -11z"/>
<path d="M3787 2723 c-13 -12 -7 -23 13 -23 13 0 18 5 14 15 -7 16 -17 19 -27
8z"/>
<path d="M3896 2665 c-21 -21 -20 -38 3 -59 16 -14 20 -15 30 -2 15 18 11 68
-5 73 -7 2 -19 -3 -28 -12z"/>
<path d="M4002 2668 c3 -7 15 -15 27 -16 16 -3 22 1 19 10 -3 7 -15 15 -27 16
-16 3 -22 -1 -19 -10z"/>
<path d="M3060 2600 c0 -5 5 -10 10 -10 6 0 10 5 10 10 0 6 -4 10 -10 10 -5 0
-10 -4 -10 -10z"/>
<path d="M2920 2555 c-7 -8 -8 -15 -2 -15 5 0 15 7 22 15 7 8 8 15 2 15 -5 0
-15 -7 -22 -15z"/>
<path d="M3043 2463 c-7 -3 -13 -12 -13 -21 0 -15 2 -15 17 1 18 18 16 27 -4
20z"/>
<path d="M3053 2426 c-29 -14 -37 -35 -17 -43 19 -7 33 6 39 35 2 12 3 21 2
21 -1 -1 -12 -6 -24 -13z"/>
<path d="M3125 2400 c-3 -6 1 -13 10 -16 19 -8 30 0 20 15 -8 14 -22 14 -30 1z"/>
<path d="M2850 2350 c-13 -8 -13 -10 2 -10 9 0 20 5 23 10 8 13 -5 13 -25 0z"/>
<path d="M2977 2303 c-4 -3 -2 -12 4 -20 9 -10 7 -13 -10 -13 -15 0 -20 4 -15
13 5 9 3 8 -7 -1 -12 -11 -12 -14 1 -22 8 -4 18 -7 22 -7 4 1 13 -7 21 -17 11
-15 16 -16 22 -6 5 8 4 11 -2 7 -6 -4 -14 1 -17 10 -4 10 -1 20 9 26 13 7 14
12 4 23 -13 15 -22 18 -32 7z"/>
<path d="M2891 2217 c-7 -11 -9 -23 -4 -28 5 -5 16 3 25 19 13 22 14 29 4 29
-7 0 -19 -9 -25 -20z"/>
<path d="M2919 2184 c-11 -14 -10 -16 9 -12 13 1 23 7 23 13 1 17 -17 16 -32
-1z"/>
<path d="M2960 2165 c-7 -8 -21 -15 -31 -15 -23 0 -24 -13 -3 -30 13 -11 19
-9 42 13 18 19 23 30 16 37 -8 8 -15 6 -24 -5z"/>
<path d="M2753 2143 c-20 -7 -15 -23 7 -23 11 0 20 4 20 9 0 13 -12 19 -27 14z"/>
<path d="M3190 2135 c0 -8 2 -15 4 -15 2 0 11 -3 20 -6 23 -9 20 13 -4 26 -16
9 -20 8 -20 -5z"/>
<path d="M2995 2129 c-12 -18 4 -56 24 -62 26 -6 31 0 31 40 0 28 -3 33 -24
33 -14 0 -28 -5 -31 -11z"/>
<path d="M2915 2073 c-9 -25 41 -69 61 -52 11 9 11 16 2 33 -20 39 -51 48 -63
19z"/>
<path d="M3105 2080 c-8 -13 -1 -24 14 -19 6 3 7 10 2 18 -6 10 -10 10 -16 1z"/>
<path d="M2740 2076 c0 -2 9 -6 20 -9 11 -3 20 -1 20 4 0 5 -9 9 -20 9 -11 0
-20 -2 -20 -4z"/>
<path d="M3102 2029 c2 -7 10 -15 17 -17 8 -3 12 1 9 9 -2 7 -10 15 -17 17 -8
3 -12 -1 -9 -9z"/>
<path d="M2740 2020 c0 -5 9 -10 21 -10 11 0 17 5 14 10 -3 6 -13 10 -21 10
-8 0 -14 -4 -14 -10z"/>
<path d="M3836 2504 c-5 -12 -2 -15 10 -10 8 3 18 6 20 6 2 0 4 5 4 10 0 16
-27 11 -34 -6z"/>
<path d="M4007 2480 c-17 -28 -17 -29 2 -39 37 -20 65 6 50 47 -11 30 -31 28
-52 -8z"/>
<path d="M3747 2459 c-28 -16 -20 -34 17 -35 24 0 33 4 32 14 -3 21 -29 32
-49 21z"/>
<path d="M4200 2460 c-11 -6 -12 -12 -4 -20 13 -13 46 -2 41 13 -5 15 -20 18
-37 7z"/>
<path d="M3845 2449 c-4 -6 -5 -13 -2 -16 7 -7 27 6 27 18 0 12 -17 12 -25 -2z"/>
<path d="M3836 2405 c-3 -10 3 -17 20 -21 33 -8 44 4 20 22 -25 18 -32 18 -40
-1z"/>
<path d="M3735 2401 c-7 -13 17 -24 40 -19 9 1 16 8 16 13 0 14 -48 19 -56 6z"/>
<path d="M3995 2400 c-10 -16 2 -25 31 -25 17 -1 24 4 22 15 -4 18 -43 26 -53
10z"/>
<path d="M4003 2353 c-7 -2 -13 -9 -13 -14 0 -15 53 -6 58 9 4 12 -21 15 -45
5z"/>
<path d="M3940 2180 c0 -5 4 -10 9 -10 6 0 13 5 16 10 3 6 -1 10 -9 10 -9 0
-16 -4 -16 -10z"/>
<path d="M3842 2160 c0 -14 2 -19 5 -12 2 6 2 18 0 25 -3 6 -5 1 -5 -13z"/>
<path d="M3910 2161 c0 -25 6 -27 13 -6 4 8 2 17 -3 20 -6 4 -10 -3 -10 -14z"/>
<path d="M3963 2143 c-15 -5 -18 -33 -4 -33 13 0 33 28 24 33 -4 2 -14 2 -20
0z"/>
<path d="M3635 2501 c-3 -6 4 -21 15 -33 l22 -23 -4 29 c-3 30 -21 45 -33 27z"/>
<path d="M1985 1970 c-3 -5 -1 -10 4 -10 6 0 11 5 11 10 0 6 -2 10 -4 10 -3 0
-8 -4 -11 -10z"/>
<path d="M2115 1931 c-3 -5 -1 -12 5 -16 5 -3 10 1 10 9 0 18 -6 21 -15 7z"/>
<path d="M2076 1905 c4 -8 10 -12 15 -9 14 8 10 24 -6 24 -9 0 -12 -6 -9 -15z"/>
<path d="M2015 1860 c-3 -5 -1 -10 4 -10 6 0 11 5 11 10 0 6 -2 10 -4 10 -3 0
-8 -4 -11 -10z"/>
<path d="M2117 1844 c16 -25 17 -25 30 -8 20 27 16 34 -17 34 l-30 0 17 -26z"/>
<path d="M2150 1730 c0 -5 5 -10 10 -10 6 0 10 5 10 10 0 6 -4 10 -10 10 -5 0
-10 -4 -10 -10z"/>
<path d="M2320 1726 c0 -7 7 -19 15 -26 12 -10 16 -9 21 3 3 9 3 21 -1 27 -9
15 -35 12 -35 -4z"/>
<path d="M2280 1717 c0 -8 7 -21 16 -28 14 -11 15 -10 12 11 -3 26 -28 41 -28
17z"/>
<path d="M2072 1685 c3 -13 0 -26 -5 -28 -12 -4 0 -27 14 -27 5 0 9 11 9 25 0
14 5 25 11 25 8 0 8 5 -1 15 -19 23 -33 18 -28 -10z"/>
<path d="M2230 1649 c0 -5 5 -7 10 -4 6 3 10 8 10 11 0 2 -4 4 -10 4 -5 0 -10
-5 -10 -11z"/>
<path d="M1951 1601 c-7 -5 -9 -11 -4 -14 5 -3 15 -2 22 2 7 5 9 11 4 14 -5 3
-15 2 -22 -2z"/>
<path d="M2025 1600 c-3 -5 3 -10 15 -10 12 0 18 5 15 10 -3 6 -10 10 -15 10
-5 0 -12 -4 -15 -10z"/>
<path d="M2135 1601 c-3 -5 -1 -12 5 -16 14 -9 52 4 45 16 -8 12 -42 12 -50 0z"/>
<path d="M2183 1553 c-17 -6 -16 -23 1 -23 8 0 16 7 20 15 6 15 1 17 -21 8z"/>
<path d="M2015 1490 c-3 -5 1 -10 10 -10 9 0 13 5 10 10 -3 6 -8 10 -10 10 -2
0 -7 -4 -10 -10z"/>
<path d="M1990 1430 c-8 -14 -8 -26 0 -41 11 -20 11 -20 31 5 24 30 24 33 -1
46 -15 8 -21 6 -30 -10z"/>
<path d="M2116 1440 c-15 -5 -16 -9 -7 -14 7 -5 18 -3 24 3 14 14 6 20 -17 11z"/>
<path d="M2917 1763 c-13 -12 -7 -23 12 -23 10 0 24 7 31 15 10 13 9 15 -12
15 -14 0 -28 -3 -31 -7z"/>
<path d="M2965 1700 c-3 -5 -1 -10 4 -10 6 0 11 5 11 10 0 6 -2 10 -4 10 -3 0
-8 -4 -11 -10z"/>
<path d="M3020 1700 c0 -5 5 -10 11 -10 5 0 7 5 4 10 -3 6 -8 10 -11 10 -2 0
-4 -4 -4 -10z"/>
</g>
</svg>
