<?xml version="1.0" standalone="no"?>
<!DOCTYPE svg PUBLIC "-//W3C//DTD SVG 20010904//EN"
 "http://www.w3.org/TR/2001/REC-SVG-20010904/DTD/svg10.dtd">
<svg version="1.0" xmlns="http://www.w3.org/2000/svg"
 width="280.000000pt" height="280.000000pt" viewBox="0 0 280.000000 280.000000"
 preserveAspectRatio="xMidYMid meet">
<metadata>
Created by potrace 1.11, written by Peter Selinger 2001-2013
</metadata>
<g transform="translate(0.000000,280.000000) scale(0.100000,-0.100000)"
fill="#000000" stroke="none">
<path d="M0 1400 l0 -1360 1400 0 1400 0 0 1360 0 1360 -1400 0 -1400 0 0
-1360z m846 673 c-20 -69 -58 -235 -53 -239 2 -3 85 48 183 112 182 120 227
143 277 144 76 1 137 -66 137 -150 0 -22 -49 -238 -110 -480 -60 -242 -110
-446 -110 -455 0 -12 16 -15 90 -15 l89 0 -14 -32 c-21 -52 -70 -104 -120
-128 -38 -19 -59 -21 -131 -19 -84 4 -86 5 -119 41 -63 68 -62 77 59 562 58
236 105 430 103 432 -1 2 -93 -56 -203 -128 l-200 -131 -89 -356 c-48 -196
-92 -371 -97 -389 l-9 -32 -120 0 c-110 0 -120 2 -115 18 3 9 71 280 151 602
80 322 150 602 156 623 l10 37 120 0 c110 0 120 -2 115 -17z m1651 -3 c18 -10
38 -32 46 -47 36 -70 34 -84 -88 -571 -63 -255 -122 -477 -131 -493 -25 -49
-86 -111 -129 -130 -36 -17 -72 -19 -372 -19 -220 0 -333 3 -333 10 0 28 213
856 227 884 50 96 133 156 219 156 l52 0 -108 -431 c-76 -302 -104 -432 -96
-435 6 -2 81 -3 166 -2 l154 3 113 450 c62 248 113 453 113 457 0 4 -164 9
-365 10 l-364 3 18 40 c23 51 65 93 116 116 36 17 72 19 385 19 325 0 347 -1
377 -20z"/>
</g>
</svg>
