<?xml version="1.0" standalone="no"?>
<!DOCTYPE svg PUBLIC "-//W3C//DTD SVG 20010904//EN"
 "http://www.w3.org/TR/2001/REC-SVG-20010904/DTD/svg10.dtd">
<svg version="1.0" xmlns="http://www.w3.org/2000/svg"
 width="600.000000pt" height="600.000000pt" viewBox="0 0 600.000000 600.000000"
 preserveAspectRatio="xMidYMid meet">
<metadata>
Created by potrace 1.11, written by Peter Selinger 2001-2013
</metadata>
<g transform="translate(0.000000,600.000000) scale(0.100000,-0.100000)"
fill="#000000" stroke="none">
<path d="M2795 5876 c-110 -63 -690 -398 -1290 -744 l-1090 -629 -3 -1500 c-2
-1419 -1 -1501 15 -1515 36 -31 2555 -1478 2573 -1478 18 0 2537 1447 2573
1478 16 14 17 96 15 1515 l-3 1499 -1125 650 c-1361 785 -1431 826 -1450 833
-10 3 -97 -41 -215 -109z m908 -771 c4 -8 -9 -40 -28 -71 -68 -112 -62 -121
63 -96 79 17 92 17 97 4 4 -11 15 -13 48 -8 l42 6 34 -66 c19 -37 45 -79 58
-95 l24 -28 -94 -188 c-52 -103 -112 -228 -133 -278 -21 -49 -68 -135 -104
-191 -163 -252 -373 -564 -377 -560 -2 2 -24 75 -48 162 -55 201 -98 325 -129
378 -32 55 -107 123 -162 147 -40 18 -432 79 -507 79 -25 0 -38 -15 -115 -133
-48 -73 -91 -134 -95 -135 -4 -2 -28 23 -52 55 -24 32 -66 80 -94 108 -28 27
-51 52 -51 56 0 4 20 12 45 18 37 9 49 18 61 45 16 33 16 35 -20 99 l-37 65
94 79 c201 166 255 205 274 194 37 -21 95 -88 121 -141 15 -30 32 -55 39 -55
6 0 82 99 168 220 86 121 161 224 165 229 8 8 72 -31 148 -91 30 -25 42 -42
42 -61 0 -41 10 -48 71 -49 46 0 65 -6 102 -32 25 -17 50 -31 55 -31 5 0 20
26 33 58 15 37 40 74 73 105 46 44 48 49 37 74 -11 24 -9 29 26 66 40 41 90
77 109 77 7 0 14 -7 17 -15z m1208 -994 c11 -196 18 -248 40 -300 23 -52 23
-68 5 -134 -8 -29 -20 -71 -26 -94 -6 -24 -16 -43 -22 -43 -6 0 -20 -7 -30
-17 -17 -15 -22 -15 -76 0 -125 35 -238 28 -255 -16 -19 -50 -18 -107 3 -165
19 -52 22 -75 18 -159 -7 -137 -29 -189 -122 -289 -64 -68 -77 -77 -93 -68
-10 6 -67 37 -128 69 -65 35 -139 84 -180 120 -90 79 -85 77 -171 85 -70 7
-77 10 -150 66 -88 68 -112 90 -172 162 -23 28 -66 67 -96 86 -98 66 -100 47
32 252 64 99 127 193 138 209 l21 28 13 -37 c10 -32 10 -40 -5 -56 -9 -10 -19
-37 -22 -59 l-6 -40 47 -13 c42 -11 47 -16 62 -58 9 -25 25 -52 35 -61 24 -22
198 -91 214 -85 13 4 55 112 55 141 0 9 11 26 24 36 13 10 26 29 29 41 6 23 9
23 162 24 143 2 156 0 166 -17 5 -10 19 -19 29 -19 17 0 20 7 20 48 0 70 -8
87 -45 105 l-34 16 40 118 c21 64 43 121 47 125 5 5 23 -12 41 -37 37 -52 101
-91 120 -72 15 15 14 44 -1 54 -7 4 -18 17 -24 27 -9 18 4 33 115 133 l125
112 25 -36 c22 -33 25 -51 32 -182z m-2164 110 c233 -33 280 -52 345 -136 39
-52 103 -227 157 -431 16 -61 34 -121 40 -132 15 -28 -9 -46 -51 -39 -18 3
-139 21 -268 40 -129 20 -268 41 -308 47 -84 13 -99 10 -104 -21 -2 -18 -36
-41 -152 -106 -170 -94 -188 -109 -223 -178 -32 -63 -29 -61 -50 -38 -10 11
-44 44 -76 73 -53 49 -59 52 -83 42 -30 -14 -82 -118 -66 -134 13 -13 -18 -86
-40 -91 -10 -3 -23 -26 -33 -61 -8 -31 -22 -80 -31 -110 l-15 -54 -122 39
c-119 38 -168 43 -222 22 -9 -3 -22 23 -41 82 -23 70 -26 89 -16 105 10 16 7
24 -14 49 l-25 30 33 73 c41 95 44 98 89 98 21 0 40 4 44 9 3 6 30 1 66 -12
l60 -21 128 42 c79 26 136 51 148 65 25 26 73 120 73 141 0 8 -61 72 -137 144
l-136 129 63 149 c34 82 63 150 64 151 0 0 40 12 89 24 l87 23 66 -64 c36 -36
93 -100 125 -142 34 -44 65 -75 72 -72 6 3 54 70 105 149 88 137 96 145 125
145 18 0 123 -13 234 -29z m128 -731 c116 -16 253 -38 306 -47 l96 -17 -106
-183 c-101 -175 -230 -351 -253 -345 -6 1 -53 42 -104 90 -90 83 -96 87 -141
88 -39 0 -86 18 -246 94 l-198 93 28 29 c15 16 97 68 183 115 156 87 174 99
163 116 -4 6 8 7 28 3 19 -3 129 -19 244 -36z m562 -125 c21 -13 63 -54 93
-91 30 -37 99 -101 152 -142 96 -73 99 -75 171 -82 41 -4 79 -10 86 -14 7 -5
-5 -25 -36 -61 -27 -29 -86 -124 -133 -209 l-85 -156 -42 0 c-62 0 -90 -15
-113 -60 -11 -22 -43 -65 -70 -95 -27 -29 -53 -63 -59 -74 -10 -18 -15 -19
-36 -9 -21 9 -28 8 -45 -7 -20 -18 -22 -18 -76 8 -72 35 -92 35 -105 -3 -6
-16 -12 -30 -13 -30 -1 0 -30 14 -64 30 -34 17 -67 30 -72 30 -12 0 -12 3 -1
33 5 13 6 29 2 35 -8 13 -183 78 -274 100 l-68 17 88 65 c150 109 210 172 363
379 19 26 82 129 139 230 l104 182 28 -27 c15 -14 45 -37 66 -49z m-894 -302
c64 -29 108 -43 128 -41 25 2 44 -10 129 -87 l100 -90 -38 -33 c-73 -65 -234
-184 -267 -198 -69 -29 -201 -13 -260 31 -19 15 -19 15 3 31 18 13 21 19 11
30 -6 8 -16 14 -21 14 -26 0 -103 68 -136 120 -25 42 -47 64 -74 76 -21 9 -38
22 -38 28 0 6 29 71 64 143 l65 133 118 -56 c65 -31 162 -76 216 -101z m1483
-104 c30 -32 44 -41 207 -129 l97 -53 -24 -26 c-38 -40 -56 -93 -56 -168 0
-46 -7 -82 -20 -112 -28 -61 -26 -112 5 -150 53 -62 107 -50 189 43 68 78 104
95 150 74 17 -9 44 -34 60 -57 28 -40 28 -43 17 -98 -6 -32 -34 -114 -62 -183
-43 -107 -55 -128 -85 -148 l-36 -23 -69 41 c-84 50 -150 58 -289 37 -93 -15
-96 -15 -125 7 -16 12 -43 28 -60 36 -16 8 -92 76 -170 150 -79 77 -155 142
-175 149 -19 8 -50 23 -68 34 -33 19 -33 20 -12 34 11 8 35 39 52 70 33 59 56
73 118 73 47 0 50 4 146 183 63 117 154 247 173 247 4 0 20 -14 37 -31z
m-1731 -339 c10 -11 45 -30 78 -42 l59 -21 -130 -38 c-71 -21 -190 -60 -263
-88 -128 -47 -194 -74 -429 -174 -209 -89 -536 -224 -556 -231 -21 -6 -21 -4
-17 66 7 127 2 120 91 116 l77 -3 2 85 c1 47 2 102 3 123 0 29 4 37 20 37 15
0 19 -8 22 -37 l3 -38 111 -3 111 -3 80 61 c44 33 105 87 136 121 46 49 59 58
74 51 10 -6 95 -8 193 -7 144 3 185 7 230 24 71 25 83 25 105 1z m348 -86 c40
-8 93 -22 118 -30 l46 -15 -56 -109 -56 -109 32 -32 32 -32 -63 -48 c-56 -42
-77 -69 -181 -236 -135 -215 -126 -202 -132 -185 -3 7 -23 33 -44 58 -21 25
-55 78 -74 118 -30 63 -45 81 -101 122 -66 48 -87 80 -98 145 -4 20 -16 45
-27 55 -21 19 -42 53 -58 98 -9 23 -6 25 87 59 53 20 153 52 222 72 69 21 157
47 195 60 86 29 72 28 158 9z m275 -85 c19 -7 21 -12 12 -28 -18 -34 -12 -41
68 -77 42 -19 89 -47 104 -61 34 -33 51 -26 67 27 l12 41 67 -36 66 -37 17 21
c25 30 27 26 18 -25 -8 -43 -54 -126 -311 -569 -69 -120 -87 -133 -134 -96
-18 14 -41 21 -72 21 -28 0 -57 8 -79 21 -47 29 -73 20 -130 -50 -55 -67 -127
-121 -162 -121 -13 0 -57 -20 -98 -45 -40 -25 -84 -45 -96 -45 -36 0 -81 -34
-115 -88 -33 -51 -95 -102 -125 -102 -10 0 1 16 31 45 27 24 101 104 165 177
97 110 146 179 280 393 157 250 166 262 238 317 40 32 76 63 78 69 2 6 -12 26
-30 45 l-33 34 47 96 c51 103 45 99 115 73z m608 -130 c57 -26 92 -54 199
-158 80 -77 160 -145 207 -174 l77 -48 58 10 c32 5 60 7 62 5 3 -2 -3 -20 -12
-39 -10 -20 -53 -63 -108 -107 -91 -73 -91 -74 -155 -201 l-65 -128 20 -28 20
-28 -26 -66 -26 -65 -37 13 c-21 7 -62 25 -91 39 -30 13 -67 30 -82 35 -25 10
-27 14 -22 45 6 30 3 36 -26 56 -28 21 -35 22 -63 11 -17 -7 -48 -17 -69 -22
-21 -5 -56 -20 -77 -34 -22 -14 -48 -25 -58 -25 -11 0 -31 -20 -51 -50 -24
-36 -39 -50 -56 -50 -21 0 -23 5 -30 87 -7 84 -8 87 -51 133 l-45 48 104 178
c224 387 265 463 308 572 5 12 12 22 17 22 5 0 40 -14 78 -31z m-1582 -20 c9
-22 30 -57 45 -77 17 -21 32 -56 36 -82 4 -25 15 -55 25 -67 15 -20 112 -98
130 -105 4 -2 21 -33 39 -70 17 -37 51 -90 76 -119 68 -79 70 -96 27 -162 -21
-31 -86 -111 -147 -179 -185 -208 -210 -227 -273 -208 -20 6 -58 21 -84 32
-45 20 -48 20 -73 4 -14 -9 -33 -32 -42 -51 -9 -19 -26 -38 -37 -41 -41 -13
-113 -13 -171 1 -33 7 -81 17 -108 20 -52 7 -137 41 -137 55 0 5 5 12 11 16 9
5 10 43 5 133 -9 182 -20 241 -51 268 -14 12 -25 30 -25 39 0 42 -69 81 -96
54 -7 -7 -19 -1 -36 17 -23 25 -27 38 -29 107 l-4 79 120 50 c133 54 429 179
635 268 74 32 138 58 141 58 4 1 14 -17 23 -40z m3431 -667 c22 -38 35 -51 48
-48 22 5 24 -39 1 -48 -32 -12 -45 -5 -77 47 l-32 52 -6 -35 c-4 -25 1 -46 15
-73 17 -33 18 -39 6 -47 -26 -17 -34 -11 -65 45 -19 36 -32 50 -37 42 -13 -20
-9 -66 8 -99 13 -25 14 -32 2 -39 -25 -16 -33 -9 -76 67 -41 71 -43 78 -27 93
15 15 18 14 34 -6 l18 -21 9 36 c10 42 36 53 65 26 18 -17 19 -16 19 12 0 72
52 70 95 -4z m-290 -102 c-4 -11 6 -38 25 -68 41 -67 39 -85 -14 -116 -69 -40
-89 -36 -125 29 -47 83 -43 96 37 143 70 40 87 43 77 12z m-188 -136 c16 -25
16 -27 -3 -41 -17 -12 -20 -12 -33 6 -13 20 -15 20 -42 4 l-28 -17 26 -45 c15
-25 28 -47 29 -49 1 -2 28 11 59 29 56 32 57 32 53 9 -4 -31 -103 -91 -132
-80 -26 9 -89 127 -78 146 12 22 84 63 109 64 13 0 30 -11 40 -26z m-297 -197
c29 -50 40 -61 58 -59 31 4 29 -23 -3 -44 -14 -9 -28 -14 -31 -12 -2 3 -19 -8
-36 -24 -46 -43 -74 -36 -115 32 -47 78 -44 92 25 134 31 19 59 35 62 35 3 1
21 -27 40 -62z m-250 -50 c0 -4 9 -3 21 4 29 15 52 -6 27 -25 -23 -17 -23 -21
7 -73 l26 -43 30 16 c30 15 30 15 27 -7 -2 -13 -17 -31 -36 -42 -32 -19 -33
-19 -53 -1 -12 11 -30 36 -40 56 -10 20 -26 41 -34 45 -9 5 -17 19 -20 31 -2
12 -7 27 -11 33 -3 6 0 22 7 36 l13 24 18 -23 c10 -13 18 -27 18 -31z m405 23
c0 -20 -6 -26 -26 -28 -28 -3 -43 16 -32 44 3 9 15 14 32 12 20 -2 26 -8 26
-28z m-460 -154 c29 -52 39 -63 55 -59 21 6 29 -20 10 -32 -5 -3 -3 -19 7 -39
9 -19 13 -41 10 -50 -9 -22 -84 -59 -93 -45 -6 11 31 48 49 49 5 0 0 13 -9 29
l-17 28 -35 -23 c-19 -13 -41 -24 -48 -24 -15 0 -50 45 -85 108 -20 37 -21 45
-9 52 26 17 34 11 68 -50 18 -33 35 -60 37 -60 2 0 15 5 29 11 l25 12 -35 64
c-29 52 -34 66 -24 78 20 24 27 19 65 -49z m-192 -110 c30 -52 40 -63 57 -59
14 4 20 0 20 -10 0 -19 -39 -49 -52 -40 -5 3 -16 -4 -23 -15 -17 -23 -69 -46
-88 -39 -18 7 -77 111 -77 136 0 13 20 31 58 55 31 19 59 36 62 36 3 0 22 -29
43 -64z m-204 -95 c28 -48 51 -96 51 -105 0 -14 -85 -77 -123 -91 -15 -6 -110
158 -105 182 7 40 34 22 76 -52 l43 -75 30 15 c17 9 29 19 27 23 -10 23 -90
162 -93 162 -2 0 -31 -16 -64 -35 -69 -41 -71 -41 -71 -15 0 27 136 103 161
89 10 -5 40 -49 68 -98z m-235 -87 c9 -3 25 -22 37 -41 24 -39 25 -37 -44 -74
-32 -17 -36 -22 -27 -39 10 -19 12 -18 61 10 56 34 69 37 69 15 0 -21 -106
-87 -132 -83 -25 3 -88 100 -88 135 0 17 14 31 53 53 28 16 53 30 54 30 1 0 8
-3 17 -6z m-219 -85 c5 -16 10 -17 27 -8 29 15 51 -7 26 -25 -23 -17 -23 -21
7 -73 l26 -43 29 15 c29 15 30 14 30 -5 0 -12 -13 -28 -32 -40 -38 -23 -62
-14 -86 33 -10 16 -29 44 -44 60 -15 16 -25 34 -22 39 3 5 0 16 -7 24 -9 12
-9 20 1 39 14 27 34 20 45 -16z m-50 -144 c32 -57 39 -64 56 -55 15 9 19 7 19
-8 0 -24 -19 -42 -46 -42 -12 0 -24 -7 -27 -14 -8 -21 -65 -48 -85 -42 -23 8
-85 121 -78 144 5 15 100 81 118 82 4 0 23 -29 43 -65z m-220 -88 c44 -76 53
-87 73 -82 26 6 30 -15 6 -39 -36 -37 -60 -19 -118 87 -21 37 -42 65 -46 62
-5 -3 -14 -21 -20 -40 -11 -33 -9 -40 30 -107 31 -54 38 -73 28 -79 -26 -17
-37 -7 -89 84 -29 50 -59 102 -66 114 -13 19 -12 23 8 33 19 11 24 9 39 -10
l18 -23 7 24 c13 45 35 70 58 67 16 -2 36 -28 72 -91z"/>
<path d="M5009 1473 l-26 -16 24 -43 c30 -54 35 -57 61 -38 l22 15 -20 37
c-33 62 -33 62 -61 45z"/>
<path d="M4513 1188 c-29 -14 -29 -16 3 -71 25 -46 26 -46 50 -31 13 9 24 19
24 22 0 6 -50 92 -53 91 -1 0 -12 -5 -24 -11z"/>
<path d="M4013 897 c-29 -13 -29 -18 2 -67 29 -45 26 -44 58 -29 l24 11 -24
44 c-30 53 -32 54 -60 41z"/>
<path d="M3613 668 c-24 -12 -30 -32 -13 -43 17 -10 60 23 54 40 -7 17 -11 18
-41 3z"/>
<path d="M3305 488 c-11 -6 -22 -12 -24 -14 -4 -4 48 -94 54 -94 2 0 15 5 29
11 l25 12 -27 48 c-30 54 -29 53 -57 37z"/>
</g>
</svg>
